<svg role="img" viewBox="0 0 24 24" xmlns="http://www.w3.org/2000/svg" aria-label="PyPI">
  <path d="M11.914 0C5.82 0 6.2 2.656 6.2 2.656l.007 2.752h5.814v.826H3.912S0 5.789 0 11.969c0 6.18 3.403 5.959 3.403 5.959h2.031v-2.867s-.109-3.402 3.35-3.402h5.766s3.24.052 3.24-3.132V3.13S18.304 0 11.914 0zm-3.21 1.814a1.053 1.053 0 1 1 0 2.107 1.052 1.052 0 0 1 0-2.107zM12.086 24c6.094 0 5.714-2.656 5.714-2.656l-.007-2.752h-5.814v-.826h8.109S24 18.211 24 12.031c0-6.18-3.403-5.959-3.403-5.959h-2.031v2.867s.109 3.402-3.35 3.402H9.449s-3.24-.052-3.24 3.132v5.397S5.696 24 12.086 24zm3.21-1.814a1.053 1.053 0 1 1 0-2.107 1.052 1.052 0 0 1 0 2.107z"/>
</svg>
