<svg xmlns="http://www.w3.org/2000/svg" viewBox="0 0 24 24" fill="#2980b9">
  <!-- FontAwesome 4.7.0 hdd-o (\f0a0), path scaled and centered
       into a 24x24 box to match the other home icons. -->
  <g transform="translate(1 2.83) scale(0.01432) translate(0 1280) scale(1 -1)">
    <path d="M1040 320q0 -33 -23.5 -56.5t-56.5 -23.5t-56.5 23.5t-23.5 56.5t23.5 56.5t56.5 23.5t56.5 -23.5t23.5 -56.5zM1296 320q0 -33 -23.5 -56.5t-56.5 -23.5t-56.5 23.5t-23.5 56.5t23.5 56.5t56.5 23.5t56.5 -23.5t23.5 -56.5zM1408 160v320q0 13 -9.5 22.5t-22.5 9.5h-1216q-13 0 -22.5 -9.5t-9.5 -22.5v-320q0 -13 9.5 -22.5t22.5 -9.5h1216q13 0 22.5 9.5t9.5 22.5zM178 640h1180l-157 482q-4 13 -16 21.5t-26 8.5h-782q-14 0 -26 -8.5t-16 -21.5zM1536 480v-320q0 -66 -47 -113t-113 -47h-1216q-66 0 -113 47t-47 113v320q0 25 16 75l197 606q17 53 63 86t101 33h782q55 0 101 -33t63 -86l197 -606q16 -50 16 -75z"/>
  </g>
</svg>
