<svg xmlns="http://www.w3.org/2000/svg" viewBox="0 0 24 24" fill="none" stroke-width="1.5" stroke-linecap="round" stroke-linejoin="round">
  <style>* { stroke: #2980b9; }</style>
  <rect x="1" y="4" width="22" height="13" rx="1.5"/>
  <rect x="3"  y="7.5" width="3" height="6" rx="0.5"/>
  <rect x="8"  y="7.5" width="3" height="6" rx="0.5"/>
  <rect x="13" y="7.5" width="3" height="6" rx="0.5"/>
  <rect x="18" y="7.5" width="3" height="6" rx="0.5"/>
  <line x1="2"    y1="17" x2="2"    y2="20"/>
  <line x1="4.2"  y1="17" x2="4.2"  y2="20"/>
  <line x1="6.4"  y1="17" x2="6.4"  y2="20"/>
  <line x1="8.6"  y1="17" x2="8.6"  y2="20"/>
  <line x1="10.8" y1="17" x2="10.8" y2="20"/>
  <line x1="13.2" y1="17" x2="13.2" y2="20"/>
  <line x1="15.4" y1="17" x2="15.4" y2="20"/>
  <line x1="17.6" y1="17" x2="17.6" y2="20"/>
  <line x1="19.8" y1="17" x2="19.8" y2="20"/>
  <line x1="22"   y1="17" x2="22"   y2="20"/>
  <line x1="2"    y1="20" x2="22"   y2="20"/>
</svg>
