<svg viewBox="0 0 186 34.854" xmlns="http://www.w3.org/2000/svg"><g fill="#1d2227"><path d="m0 26.351 6.117-2.823c.941 2.319 2.756 4.5 5.983 4.5 2.252 0 4.3-1.109 4.3-3.731 0-2.017-1.109-2.958-4.336-4.235l-2.117-.807c-4.537-1.815-8.705-4.3-8.705-9.814.002-5.841 4.909-9.441 10.791-9.441a11.935 11.935 0 0 1 11.192 7.226l-5.579 3.159c-1.479-2.588-3.193-3.664-5.31-3.664-2.05 0-3.63.941-3.63 2.857 0 1.479.874 2.622 4.4 4.067l2.286.907c6.117 2.386 8.84 5.176 8.84 9.848 0 7.058-6.319 10.453-12.033 10.453-5.981.001-10.922-3.528-12.199-8.502z"/><path d="m80.7 39.906c0-8.671 6.218-12.906 11.864-12.906 4.4 0 6.991 2.386 7.361 3.294h.134v-2.823h7.394v24.838h-7.393v-2.824h-.134c-.37.907-2.958 3.294-7.361 3.294-5.647 0-11.865-4.235-11.865-12.873zm19.528 0a6.1 6.1 0 1 0 -12.2 0 6.1 6.1 0 1 0 12.2 0z" transform="translate(-53.576 -17.925)"/><path d="m199.7 37.688v14.621h-7.4v-13.309c0-3.092-1.58-5.411-4.638-5.411-2.991 0-4.571 2.286-4.571 5.411v13.31h-7.391v-24.839h7.394v3.159a8.293 8.293 0 0 1 7.327-3.63c5.008 0 9.279 3.092 9.279 10.688z" transform="translate(-116.647 -17.925)"/><path d="m257.6 45.655 5.882-1.58a3.591 3.591 0 0 0 3.6 2.857c1.344 0 2.588-.672 2.588-2.05 0-.807-.471-1.58-2.117-2.117l-3.327-1.244c-4.1-1.479-5.882-4.168-5.882-7.26 0-4.638 4.168-7.361 9.041-7.361 4.672 0 8.066 2.622 8.94 6.655l-5.819 1.445a2.888 2.888 0 0 0 -2.857-2.353c-1.445 0-2.151.874-2.151 1.714 0 .807.471 1.58 2.151 2.117l3.092 1.143c2.689.907 6.218 2.756 6.218 7.26 0 5.008-4.235 7.831-9.781 7.831-5.041.001-8.805-2.318-9.578-7.057z" transform="translate(-171.02 -17.859)"/><path d="m347.171 42.763h-17.679c1.008 2.689 3.5 4 6.789 4a9.5 9.5 0 0 0 5.983-1.916l3.327 3.5a12.629 12.629 0 0 1 -10.117 4.437c-6.89 0-13.074-4.672-13.074-12.839 0-8.4 6.252-12.94 12.671-12.94 6.285-.005 13.68 4.395 12.1 15.758zm-17.814-5.31h11.327a5.345 5.345 0 0 0 -5.546-4.235 5.693 5.693 0 0 0 -5.781 4.235z" transform="translate(-214.04 -17.925)"/></g><path d="m505.48 31.2a12.836 12.836 0 0 0 -9.68-4.4v25.813a12.836 12.836 0 0 0 9.68-4.4 12.818 12.818 0 0 1 0-17.007z" fill="#00a19a" transform="translate(-329.16 -17.792)"/><path d="m524.6 31.2a12.818 12.818 0 0 1 0 17.007 12.836 12.836 0 0 0 9.68 4.4v-25.807a12.89 12.89 0 0 0 -9.68 4.4z" fill="#fc0" transform="translate(-348.28 -17.792)"/><path d="m518.227 39.9a12.819 12.819 0 0 0 0 17.007 12.818 12.818 0 0 0 0-17.007z" fill="#3f1f71" transform="translate(-341.906 -26.489)"/><path d="m425.175 48.376a13.086 13.086 0 0 1 -2.722-4.974 6.412 6.412 0 0 1 -5.21 2.722 5.886 5.886 0 0 1 -5.915-6.252 5.857 5.857 0 0 1 5.915-6.151 6.458 6.458 0 0 1 5.176 2.689 12.879 12.879 0 0 1 2.756-5.075c.235-.269.5-.538.773-.807a11.972 11.972 0 0 0 -8.705-3.528c-6.655 0-13.243 4.437-13.243 12.839 0 8.5 6.588 12.94 13.242 12.94a12.11 12.11 0 0 0 8.739-3.6z" fill="#1d2227" transform="translate(-268.214 -17.925)"/></svg>