<svg xmlns="http://www.w3.org/2000/svg" xmlns:xlink="http://www.w3.org/1999/xlink" viewBox="0 0 400 120">
  <defs>
    <linearGradient id="a">
      <stop offset="0" stop-color="#ee5b24"/>
      <stop offset=".5" stop-color="#f38321"/>
      <stop offset="1" stop-color="#f79e1f"/>
    </linearGradient>
    <linearGradient xlink:href="#a" id="b" x1="416.183" x2="416.183" y1="409.143" y2="267.974" gradientTransform="matrix(.79919 0 0 .79919 -253.764 -207.28)" gradientUnits="userSpaceOnUse"/>
  </defs>
  <path fill="url(#b)" d="M149.65 6.916c-2.023 0-3.802.769-5.339 2.306-1.456 1.456-2.183 3.235-2.183 5.338s.727 3.884 2.183 5.34c1.537 1.456 3.316 2.184 5.339 2.184 2.103 0 3.883-.728 5.34-2.184 1.536-1.456 2.305-3.237 2.305-5.34 0-2.103-.769-3.882-2.306-5.338-1.456-1.537-3.236-2.306-5.34-2.306zm0 22.568c-2.023 0-3.802.769-5.339 2.306-1.456 1.456-2.183 3.196-2.183 5.218v45.864c0 2.022.727 3.802 2.183 5.338 1.537 1.456 3.316 2.186 5.339 2.186 2.103 0 3.883-.73 5.34-2.186 1.536-1.536 2.305-3.316 2.305-5.338V37.008c0-2.022-.769-3.762-2.306-5.218-1.456-1.537-3.236-2.306-5.34-2.306zm-70.234.122c-2.022 0-3.801.768-5.338 2.305-1.456 1.456-2.185 3.236-2.185 5.339v75.106c0 2.103.729 3.884 2.185 5.34 1.537 1.537 3.316 2.304 5.338 2.304 2.103 0 3.883-.767 5.339-2.304 1.536-1.456 2.305-3.237 2.305-5.34V86.148c4.692 2.75 9.748 4.126 15.167 4.126 8.413 0 15.572-2.953 21.477-8.858 5.905-5.905 8.857-13.064 8.857-21.477 0-8.332-2.952-15.45-8.857-21.355-5.905-5.986-13.064-8.978-21.477-8.978zm-49.081.122c-8.413 0-15.572 2.951-21.477 8.856C2.953 44.49 0 51.648 0 60.061c0 8.331 2.953 15.45 8.858 21.355 5.905 5.905 13.023 8.899 21.355 8.98h22.931c2.023 0 3.763-.73 5.219-2.186 1.537-1.537 2.305-3.316 2.305-5.338V60.061c0-8.413-2.953-15.572-8.858-21.477-5.905-5.905-13.063-8.856-21.475-8.856zm71.892 15.045c4.207 0 7.765 1.496 10.677 4.49 2.993 2.911 4.49 6.47 4.49 10.676s-1.497 7.807-4.49 10.8c-2.912 2.912-6.47 4.367-10.677 4.367-4.206 0-7.805-1.455-10.798-4.367-2.912-2.993-4.369-6.594-4.369-10.8s1.457-7.765 4.369-10.677c2.993-2.993 6.592-4.489 10.798-4.489zm-71.892.122c4.206 0 7.764 1.496 10.676 4.49 2.993 2.911 4.49 6.47 4.49 10.676s-1.497 7.805-4.49 10.798c-2.912 2.912-6.47 4.37-10.676 4.37s-7.807-1.458-10.8-4.37c-2.912-2.993-4.368-6.592-4.368-10.798 0-4.207 1.456-7.765 4.368-10.677 2.993-2.993 6.594-4.49 10.8-4.49z"/>
  <path fill="#130f40" d="M392.354 0c-2.022 0-3.801.769-5.338 2.306-1.456 1.456-2.184 3.235-2.184 5.338v26.21c-4.691-2.751-9.748-4.126-15.167-4.126-8.413 0-15.57 2.951-21.475 8.856-5.905 5.905-8.858 13.064-8.858 21.477 0 8.332 2.953 15.49 8.858 21.477 5.905 5.905 13.062 8.858 21.475 8.858h22.69c2.102 0 3.883-.73 5.34-2.186 1.536-1.536 2.305-3.357 2.305-5.46V7.644c0-2.103-.769-3.882-2.306-5.338C396.238.769 394.457 0 392.354 0Zm-72.462 6.916c-2.022 0-3.801.769-5.338 2.306-1.456 1.456-2.186 3.235-2.186 5.338s.73 3.884 2.186 5.34c1.537 1.456 3.316 2.184 5.338 2.184 2.103 0 3.882-.728 5.338-2.184 1.537-1.456 2.306-3.237 2.306-5.34 0-2.103-.769-3.882-2.306-5.338-1.456-1.537-3.235-2.306-5.338-2.306zm0 22.568c-2.022 0-3.801.769-5.338 2.306-1.456 1.456-2.186 3.196-2.186 5.218v45.864c0 2.022.73 3.802 2.186 5.338 1.537 1.456 3.316 2.186 5.338 2.186 2.103 0 3.882-.73 5.338-2.186 1.537-1.536 2.306-3.316 2.306-5.338V37.008c0-2.022-.769-3.762-2.306-5.218-1.456-1.537-3.235-2.306-5.338-2.306zm-142.418.244c-2.103 0-3.923.768-5.46 2.305-1.456 1.456-2.183 3.194-2.183 5.217 0 1.132.242 2.184.727 3.154l22.448 45.5c1.456 2.994 3.761 4.492 6.916 4.492 3.236 0 5.58-1.498 7.037-4.491l22.447-45.5c.485-.971.729-2.023.729-3.155 0-2.023-.769-3.76-2.306-5.217-1.456-1.537-3.236-2.305-5.34-2.305-3.154 0-5.458 1.496-6.914 4.489l-15.653 31.547-15.531-31.547c-1.456-2.993-3.762-4.49-6.917-4.49zm93.003 0c-8.413 0-15.572 2.951-21.477 8.856-5.905 5.905-8.856 13.064-8.856 21.477 0 8.412 2.951 15.571 8.856 21.476 5.905 5.905 13.064 8.859 21.477 8.859 8.412 0 15.571-2.954 21.476-8.859 5.905-5.905 8.857-13.064 8.857-21.476 0-8.413-2.952-15.572-8.857-21.477-5.905-5.905-13.064-8.856-21.476-8.856zm0 15.167c4.206 0 7.766 1.496 10.678 4.49 2.993 2.911 4.49 6.47 4.49 10.676s-1.497 7.805-4.49 10.798c-2.912 2.912-6.472 4.37-10.678 4.37-4.207 0-7.806-1.458-10.799-4.37-2.912-2.993-4.369-6.592-4.369-10.798s1.457-7.765 4.37-10.677c2.992-2.993 6.591-4.489 10.798-4.489zm99.188 0c4.206 0 7.766 1.496 10.678 4.49 2.993 2.911 4.49 6.47 4.49 10.676s-1.497 7.805-4.49 10.798c-2.912 2.912-6.472 4.37-10.678 4.37s-7.806-1.458-10.799-4.37c-2.912-2.993-4.367-6.592-4.367-10.798s1.455-7.765 4.367-10.677c2.993-2.993 6.593-4.489 10.799-4.489z"/>
</svg>
